<svg width="155" height="26" viewBox="0 0 155 26" fill="none" xmlns="http://www.w3.org/2000/svg">
    <path fill-rule="evenodd" clip-rule="evenodd"
          d="M0.306359 4.71111C0.561824 4.49158 0.91987 4.43845 1.2276 4.5744L18.477 12.1951C18.856 12.3625 19.0663 12.7738 18.9812 13.1809C18.8961 13.5879 18.5387 13.8793 18.1247 13.8793L2.88256 13.8793C2.48541 13.8793 2.13804 13.6107 2.03644 13.225L0.029155 5.60427C-0.0568437 5.27777 0.0508929 4.93064 0.306359 4.71111ZM2.18621 6.91906L3.55632 12.1207L13.9601 12.1207L2.18621 6.91906Z"
          fill="#E76100"/>
    <path fill-rule="evenodd" clip-rule="evenodd"
          d="M0.306359 21.2888C0.561824 21.5083 0.91987 21.5614 1.2276 21.4255L18.477 13.8048C18.856 13.6374 19.0663 13.2261 18.9812 12.819C18.8961 12.412 18.5387 12.1206 18.1247 12.1206L2.88256 12.1206C2.48541 12.1206 2.13804 12.3892 2.03644 12.7749L0.029155 20.3956C-0.0568437 20.7221 0.0508929 21.0692 0.306359 21.2888ZM2.18621 19.0808L3.55632 13.8792L13.9601 13.8792L2.18621 19.0808Z"
          fill="#E76100"/>
    <path d="M29.04 20C28.9067 20 28.7933 19.9533 28.7 19.86C28.6067 19.7667 28.56 19.6533 28.56 19.52V6.5C28.56 6.35333 28.6067 6.23333 28.7 6.14C28.7933 6.04667 28.9067 6 29.04 6H33.92C35.2667 6 36.3733 6.20667 37.24 6.62C38.12 7.03333 38.78 7.64667 39.22 8.46C39.6733 9.27333 39.9067 10.2667 39.92 11.44C39.9467 12.0267 39.96 12.5467 39.96 13C39.96 13.4533 39.9467 13.9667 39.92 14.54C39.8933 15.78 39.6667 16.8067 39.24 17.62C38.8133 18.42 38.1667 19.02 37.3 19.42C36.4467 19.8067 35.3533 20 34.02 20H29.04ZM31.34 17.7H33.92C34.6667 17.7 35.2733 17.5933 35.74 17.38C36.2067 17.1667 36.5467 16.8267 36.76 16.36C36.9867 15.88 37.1067 15.2533 37.12 14.48C37.1333 14.08 37.14 13.7333 37.14 13.44C37.1533 13.1333 37.1533 12.8333 37.14 12.54C37.14 12.2333 37.1333 11.8867 37.12 11.5C37.0933 10.4067 36.82 9.6 36.3 9.08C35.78 8.56 34.9533 8.3 33.82 8.3H31.34V17.7ZM42.8625 20C42.7292 20 42.6158 19.9533 42.5225 19.86C42.4292 19.7667 42.3825 19.6533 42.3825 19.52V10.08C42.3825 9.94667 42.4292 9.83333 42.5225 9.74C42.6158 9.64667 42.7292 9.6 42.8625 9.6H44.5225C44.6692 9.6 44.7825 9.64667 44.8625 9.74C44.9558 9.83333 45.0025 9.94667 45.0025 10.08V19.52C45.0025 19.6533 44.9558 19.7667 44.8625 19.86C44.7825 19.9533 44.6692 20 44.5225 20H42.8625ZM42.7825 7.88C42.6358 7.88 42.5158 7.84 42.4225 7.76C42.3425 7.66667 42.3025 7.54667 42.3025 7.4V5.96C42.3025 5.82667 42.3425 5.71333 42.4225 5.62C42.5158 5.52667 42.6358 5.48 42.7825 5.48H44.6025C44.7492 5.48 44.8692 5.52667 44.9625 5.62C45.0558 5.71333 45.1025 5.82667 45.1025 5.96V7.4C45.1025 7.54667 45.0558 7.66667 44.9625 7.76C44.8692 7.84 44.7492 7.88 44.6025 7.88H42.7825ZM48.5461 20C48.4128 20 48.2994 19.9533 48.2061 19.86C48.1128 19.7667 48.0661 19.6533 48.0661 19.52V10.1C48.0661 9.95333 48.1128 9.83333 48.2061 9.74C48.2994 9.64667 48.4128 9.6 48.5461 9.6H50.1661C50.2994 9.6 50.4128 9.64667 50.5061 9.74C50.6128 9.83333 50.6661 9.95333 50.6661 10.1V10.92C50.9728 10.4933 51.3661 10.1667 51.8461 9.94C52.3394 9.71333 52.9061 9.6 53.5461 9.6H54.3661C54.5128 9.6 54.6261 9.64667 54.7061 9.74C54.7994 9.83333 54.8461 9.94667 54.8461 10.08V11.52C54.8461 11.6533 54.7994 11.7667 54.7061 11.86C54.6261 11.9533 54.5128 12 54.3661 12H52.8061C52.1661 12 51.6661 12.18 51.3061 12.54C50.9594 12.9 50.7861 13.3933 50.7861 14.02V19.52C50.7861 19.6533 50.7394 19.7667 50.6461 19.86C50.5528 19.9533 50.4328 20 50.2861 20H48.5461ZM60.7492 20.2C59.2692 20.2 58.0959 19.7733 57.2292 18.92C56.3626 18.0667 55.8959 16.8533 55.8292 15.28C55.8159 15.1467 55.8092 14.98 55.8092 14.78C55.8092 14.5667 55.8159 14.4 55.8292 14.28C55.8826 13.28 56.1092 12.4133 56.5092 11.68C56.9226 10.9467 57.4892 10.3867 58.2092 10C58.9292 9.6 59.7759 9.4 60.7492 9.4C61.8292 9.4 62.7359 9.62667 63.4692 10.08C64.2026 10.52 64.7559 11.14 65.1292 11.94C65.5026 12.7267 65.6892 13.64 65.6892 14.68V15.1C65.6892 15.2333 65.6426 15.3467 65.5492 15.44C65.4559 15.5333 65.3359 15.58 65.1892 15.58H58.5492C58.5492 15.58 58.5492 15.6 58.5492 15.64C58.5492 15.68 58.5492 15.7133 58.5492 15.74C58.5626 16.2067 58.6492 16.64 58.8092 17.04C58.9826 17.4267 59.2292 17.74 59.5492 17.98C59.8826 18.22 60.2759 18.34 60.7292 18.34C61.1026 18.34 61.4159 18.2867 61.6692 18.18C61.9226 18.06 62.1292 17.9267 62.2892 17.78C62.4492 17.6333 62.5626 17.5133 62.6292 17.42C62.7492 17.26 62.8426 17.1667 62.9092 17.14C62.9892 17.1 63.1026 17.08 63.2492 17.08H64.9692C65.1026 17.08 65.2092 17.12 65.2892 17.2C65.3826 17.28 65.4226 17.38 65.4092 17.5C65.3959 17.7133 65.2826 17.9733 65.0692 18.28C64.8692 18.5867 64.5759 18.8867 64.1892 19.18C63.8026 19.4733 63.3159 19.72 62.7292 19.92C62.1559 20.1067 61.4959 20.2 60.7492 20.2ZM58.5492 13.9H62.9692V13.84C62.9692 13.32 62.8826 12.8667 62.7092 12.48C62.5359 12.0933 62.2826 11.7867 61.9492 11.56C61.6159 11.3333 61.2159 11.22 60.7492 11.22C60.2826 11.22 59.8826 11.3333 59.5492 11.56C59.2159 11.7867 58.9626 12.0933 58.7892 12.48C58.6292 12.8667 58.5492 13.32 58.5492 13.84V13.9ZM72.3122 20.2C71.3522 20.2 70.5055 20.02 69.7722 19.66C69.0522 19.3 68.4855 18.78 68.0722 18.1C67.6722 17.4067 67.4522 16.5733 67.4122 15.6C67.3989 15.4 67.3922 15.14 67.3922 14.82C67.3922 14.4867 67.3989 14.2133 67.4122 14C67.4522 13.0267 67.6722 12.2 68.0722 11.52C68.4855 10.8267 69.0522 10.3 69.7722 9.94C70.5055 9.58 71.3522 9.4 72.3122 9.4C73.1655 9.4 73.8922 9.52 74.4922 9.76C75.0922 10 75.5855 10.3 75.9722 10.66C76.3589 11.02 76.6455 11.4 76.8322 11.8C77.0322 12.1867 77.1389 12.54 77.1522 12.86C77.1655 13.0067 77.1189 13.1267 77.0122 13.22C76.9189 13.3 76.8055 13.34 76.6722 13.34H74.9122C74.7789 13.34 74.6722 13.3067 74.5922 13.24C74.5255 13.1733 74.4589 13.0733 74.3922 12.94C74.1922 12.4067 73.9255 12.0333 73.5922 11.82C73.2722 11.5933 72.8589 11.48 72.3522 11.48C71.6855 11.48 71.1522 11.6933 70.7522 12.12C70.3655 12.5333 70.1589 13.1933 70.1322 14.1C70.1055 14.6067 70.1055 15.0733 70.1322 15.5C70.1589 16.42 70.3655 17.0867 70.7522 17.5C71.1522 17.9133 71.6855 18.12 72.3522 18.12C72.8722 18.12 73.2922 18.0133 73.6122 17.8C73.9322 17.5733 74.1922 17.1933 74.3922 16.66C74.4589 16.5267 74.5255 16.4267 74.5922 16.36C74.6722 16.2933 74.7789 16.26 74.9122 16.26H76.6722C76.8055 16.26 76.9189 16.3067 77.0122 16.4C77.1189 16.48 77.1655 16.5933 77.1522 16.74C77.1389 16.98 77.0722 17.2533 76.9522 17.56C76.8455 17.8533 76.6655 18.16 76.4122 18.48C76.1722 18.7867 75.8655 19.0733 75.4922 19.34C75.1189 19.5933 74.6655 19.8 74.1322 19.96C73.6122 20.12 73.0055 20.2 72.3122 20.2ZM83.938 20C83.138 20 82.4646 19.86 81.918 19.58C81.3713 19.3 80.9646 18.8867 80.698 18.34C80.4313 17.78 80.298 17.0867 80.298 16.26V11.72H78.718C78.5846 11.72 78.4713 11.6733 78.378 11.58C78.2846 11.4867 78.238 11.3733 78.238 11.24V10.08C78.238 9.94667 78.2846 9.83333 78.378 9.74C78.4713 9.64667 78.5846 9.6 78.718 9.6H80.298V6.28C80.298 6.14667 80.338 6.03333 80.418 5.94C80.5113 5.84667 80.6313 5.8 80.778 5.8H82.398C82.5313 5.8 82.6446 5.84667 82.738 5.94C82.8313 6.03333 82.878 6.14667 82.878 6.28V9.6H85.378C85.5113 9.6 85.6246 9.64667 85.718 9.74C85.8113 9.83333 85.858 9.94667 85.858 10.08V11.24C85.858 11.3733 85.8113 11.4867 85.718 11.58C85.6246 11.6733 85.5113 11.72 85.378 11.72H82.878V16.06C82.878 16.6067 82.9713 17.0333 83.158 17.34C83.358 17.6467 83.698 17.8 84.178 17.8H85.558C85.6913 17.8 85.8046 17.8467 85.898 17.94C85.9913 18.0333 86.038 18.1467 86.038 18.28V19.52C86.038 19.6533 85.9913 19.7667 85.898 19.86C85.8046 19.9533 85.6913 20 85.558 20H83.938ZM88.5322 20C88.3989 20 88.2855 19.9533 88.1922 19.86C88.0989 19.7667 88.0522 19.6533 88.0522 19.52V6.5C88.0522 6.35333 88.0989 6.23333 88.1922 6.14C88.2855 6.04667 88.3989 6 88.5322 6H94.3322C95.4122 6 96.2922 6.16667 96.9722 6.5C97.6522 6.82 98.1522 7.26667 98.4722 7.84C98.8055 8.41333 98.9722 9.08 98.9722 9.84C98.9722 10.3467 98.8789 10.7933 98.6922 11.18C98.5189 11.5533 98.2989 11.86 98.0322 12.1C97.7789 12.34 97.5255 12.5267 97.2722 12.66C97.7922 12.9 98.2522 13.3 98.6522 13.86C99.0522 14.42 99.2522 15.0867 99.2522 15.86C99.2522 16.66 99.0722 17.3733 98.7122 18C98.3522 18.6267 97.8189 19.12 97.1122 19.48C96.4055 19.8267 95.5322 20 94.4922 20H88.5322ZM90.8322 17.88H94.1722C94.8922 17.88 95.4389 17.6867 95.8122 17.3C96.1855 16.9 96.3722 16.42 96.3722 15.86C96.3722 15.2733 96.1789 14.7867 95.7922 14.4C95.4189 14.0133 94.8789 13.82 94.1722 13.82H90.8322V17.88ZM90.8322 11.74H93.9722C94.6789 11.74 95.2055 11.5733 95.5522 11.24C95.9122 10.8933 96.0922 10.4467 96.0922 9.9C96.0922 9.34 95.9122 8.90667 95.5522 8.6C95.2055 8.28 94.6789 8.12 93.9722 8.12H90.8322V11.74ZM106.123 20.2C105.056 20.2 104.156 20.0133 103.423 19.64C102.703 19.2667 102.15 18.74 101.763 18.06C101.39 17.38 101.176 16.5867 101.123 15.68C101.11 15.44 101.103 15.1467 101.103 14.8C101.103 14.4533 101.11 14.16 101.123 13.92C101.176 13 101.396 12.2067 101.783 11.54C102.183 10.86 102.743 10.3333 103.463 9.96C104.196 9.58667 105.083 9.4 106.123 9.4C107.163 9.4 108.043 9.58667 108.763 9.96C109.496 10.3333 110.056 10.86 110.443 11.54C110.843 12.2067 111.07 13 111.123 13.92C111.136 14.16 111.143 14.4533 111.143 14.8C111.143 15.1467 111.136 15.44 111.123 15.68C111.07 16.5867 110.85 17.38 110.463 18.06C110.09 18.74 109.536 19.2667 108.803 19.64C108.083 20.0133 107.19 20.2 106.123 20.2ZM106.123 18.22C106.83 18.22 107.376 18 107.763 17.56C108.15 17.1067 108.363 16.4467 108.403 15.58C108.416 15.38 108.423 15.12 108.423 14.8C108.423 14.48 108.416 14.22 108.403 14.02C108.363 13.1667 108.15 12.5133 107.763 12.06C107.376 11.6067 106.83 11.38 106.123 11.38C105.416 11.38 104.87 11.6067 104.483 12.06C104.096 12.5133 103.883 13.1667 103.843 14.02C103.83 14.22 103.823 14.48 103.823 14.8C103.823 15.12 103.83 15.38 103.843 15.58C103.883 16.4467 104.096 17.1067 104.483 17.56C104.87 18 105.416 18.22 106.123 18.22ZM117.959 20.2C116.892 20.2 115.992 20.0133 115.259 19.64C114.539 19.2667 113.986 18.74 113.599 18.06C113.226 17.38 113.012 16.5867 112.959 15.68C112.946 15.44 112.939 15.1467 112.939 14.8C112.939 14.4533 112.946 14.16 112.959 13.92C113.012 13 113.232 12.2067 113.619 11.54C114.019 10.86 114.579 10.3333 115.299 9.96C116.032 9.58667 116.919 9.4 117.959 9.4C118.999 9.4 119.879 9.58667 120.599 9.96C121.332 10.3333 121.892 10.86 122.279 11.54C122.679 12.2067 122.906 13 122.959 13.92C122.972 14.16 122.979 14.4533 122.979 14.8C122.979 15.1467 122.972 15.44 122.959 15.68C122.906 16.5867 122.686 17.38 122.299 18.06C121.926 18.74 121.372 19.2667 120.639 19.64C119.919 20.0133 119.026 20.2 117.959 20.2ZM117.959 18.22C118.666 18.22 119.212 18 119.599 17.56C119.986 17.1067 120.199 16.4467 120.239 15.58C120.252 15.38 120.259 15.12 120.259 14.8C120.259 14.48 120.252 14.22 120.239 14.02C120.199 13.1667 119.986 12.5133 119.599 12.06C119.212 11.6067 118.666 11.38 117.959 11.38C117.252 11.38 116.706 11.6067 116.319 12.06C115.932 12.5133 115.719 13.1667 115.679 14.02C115.666 14.22 115.659 14.48 115.659 14.8C115.659 15.12 115.666 15.38 115.679 15.58C115.719 16.4467 115.932 17.1067 116.319 17.56C116.706 18 117.252 18.22 117.959 18.22ZM125.695 20C125.562 20 125.448 19.9533 125.355 19.86C125.262 19.7667 125.215 19.6533 125.215 19.52V6.28C125.215 6.14667 125.262 6.03333 125.355 5.94C125.448 5.84667 125.562 5.8 125.695 5.8H127.315C127.462 5.8 127.575 5.84667 127.655 5.94C127.748 6.03333 127.795 6.14667 127.795 6.28V13.12L131.155 9.94C131.275 9.83333 131.382 9.75333 131.475 9.7C131.568 9.63333 131.708 9.6 131.895 9.6H133.755C133.888 9.6 133.995 9.64 134.075 9.72C134.155 9.8 134.195 9.90667 134.195 10.04C134.195 10.0933 134.182 10.1533 134.155 10.22C134.128 10.2867 134.075 10.3467 133.995 10.4L129.875 14.26L134.495 19.22C134.628 19.3533 134.695 19.4667 134.695 19.56C134.695 19.6933 134.648 19.8 134.555 19.88C134.475 19.96 134.375 20 134.255 20H132.355C132.155 20 132.008 19.9733 131.915 19.92C131.835 19.8533 131.735 19.7667 131.615 19.66L127.795 15.64V19.52C127.795 19.6533 127.748 19.7667 127.655 19.86C127.575 19.9533 127.462 20 127.315 20H125.695ZM140.183 20.2C138.703 20.2 137.529 19.7733 136.663 18.92C135.796 18.0667 135.329 16.8533 135.263 15.28C135.249 15.1467 135.243 14.98 135.243 14.78C135.243 14.5667 135.249 14.4 135.263 14.28C135.316 13.28 135.543 12.4133 135.943 11.68C136.356 10.9467 136.923 10.3867 137.643 10C138.363 9.6 139.209 9.4 140.183 9.4C141.263 9.4 142.169 9.62667 142.903 10.08C143.636 10.52 144.189 11.14 144.563 11.94C144.936 12.7267 145.123 13.64 145.123 14.68V15.1C145.123 15.2333 145.076 15.3467 144.983 15.44C144.889 15.5333 144.769 15.58 144.623 15.58H137.983C137.983 15.58 137.983 15.6 137.983 15.64C137.983 15.68 137.983 15.7133 137.983 15.74C137.996 16.2067 138.083 16.64 138.243 17.04C138.416 17.4267 138.663 17.74 138.983 17.98C139.316 18.22 139.709 18.34 140.163 18.34C140.536 18.34 140.849 18.2867 141.103 18.18C141.356 18.06 141.563 17.9267 141.723 17.78C141.883 17.6333 141.996 17.5133 142.063 17.42C142.183 17.26 142.276 17.1667 142.343 17.14C142.423 17.1 142.536 17.08 142.683 17.08H144.403C144.536 17.08 144.643 17.12 144.723 17.2C144.816 17.28 144.856 17.38 144.843 17.5C144.829 17.7133 144.716 17.9733 144.503 18.28C144.303 18.5867 144.009 18.8867 143.623 19.18C143.236 19.4733 142.749 19.72 142.163 19.92C141.589 20.1067 140.929 20.2 140.183 20.2ZM137.983 13.9H142.403V13.84C142.403 13.32 142.316 12.8667 142.143 12.48C141.969 12.0933 141.716 11.7867 141.383 11.56C141.049 11.3333 140.649 11.22 140.183 11.22C139.716 11.22 139.316 11.3333 138.983 11.56C138.649 11.7867 138.396 12.0933 138.223 12.48C138.063 12.8667 137.983 13.32 137.983 13.84V13.9ZM147.726 20C147.592 20 147.479 19.9533 147.386 19.86C147.292 19.7667 147.246 19.6533 147.246 19.52V10.1C147.246 9.95333 147.292 9.83333 147.386 9.74C147.479 9.64667 147.592 9.6 147.726 9.6H149.346C149.479 9.6 149.592 9.64667 149.686 9.74C149.792 9.83333 149.846 9.95333 149.846 10.1V10.92C150.152 10.4933 150.546 10.1667 151.026 9.94C151.519 9.71333 152.086 9.6 152.726 9.6H153.546C153.692 9.6 153.806 9.64667 153.886 9.74C153.979 9.83333 154.026 9.94667 154.026 10.08V11.52C154.026 11.6533 153.979 11.7667 153.886 11.86C153.806 11.9533 153.692 12 153.546 12H151.986C151.346 12 150.846 12.18 150.486 12.54C150.139 12.9 149.966 13.3933 149.966 14.02V19.52C149.966 19.6533 149.919 19.7667 149.826 19.86C149.732 19.9533 149.612 20 149.466 20H147.726Z"
          fill="white"/>
</svg>
